<?xml version="1.0" encoding="utf-8"?>
<svg xmlns="http://www.w3.org/2000/svg" xmlns:xlink="http://www.w3.org/1999/xlink" width="61.425003" zoomAndPan="magnify" viewBox="58.5 37.98 61.425003 44.30998" height="44.30998" preserveAspectRatio="xMidYMid meet" version="1.0">
  <defs>
    <clipPath id="9f98e1339f">
      <path d="M 85 42.988281 L 94 42.988281 L 94 52 L 85 52 Z M 85 42.988281 " clip-rule="nonzero" />
    </clipPath>
    <clipPath id="51d10e6c79">
      <path d="M 63.007812 51.605469 L 115.472656 51.605469 L 115.472656 81.988281 L 63.007812 81.988281 Z M 63.007812 51.605469 " clip-rule="nonzero" />
    </clipPath>
  </defs>
  <g clip-path="url(#9f98e1339f)">
    <path fill="#020202" d="M 89.242188 44.664062 C 90.550781 44.664062 91.613281 45.726562 91.613281 47.03125 C 91.613281 48.339844 90.550781 49.402344 89.242188 49.402344 C 87.933594 49.402344 86.867188 48.339844 86.867188 47.03125 C 86.867188 45.726562 87.933594 44.664062 89.242188 44.664062 Z M 89.242188 51.074219 C 91.472656 51.074219 93.289062 49.261719 93.289062 47.03125 C 93.289062 44.800781 91.472656 42.988281 89.242188 42.988281 C 87.007812 42.988281 85.191406 44.800781 85.191406 47.03125 C 85.191406 49.261719 87.007812 51.074219 89.242188 51.074219 " fill-opacity="1" fill-rule="nonzero" />
  </g>
  <path fill="#020202" d="M 99.316406 46.46875 C 100.449219 46.46875 101.375 47.390625 101.375 48.523438 C 101.375 49.65625 100.449219 50.578125 99.316406 50.578125 C 98.179688 50.578125 97.257812 49.65625 97.257812 48.523438 C 97.257812 47.390625 98.179688 46.46875 99.316406 46.46875 Z M 99.316406 52.253906 C 101.375 52.253906 103.050781 50.582031 103.050781 48.523438 C 103.050781 46.464844 101.375 44.792969 99.316406 44.792969 C 97.253906 44.792969 95.582031 46.464844 95.582031 48.523438 C 95.582031 50.582031 97.253906 52.253906 99.316406 52.253906 " fill-opacity="1" fill-rule="nonzero" />
  <path fill="#020202" d="M 79.167969 46.46875 C 80.300781 46.46875 81.226562 47.390625 81.226562 48.523438 C 81.226562 49.65625 80.300781 50.578125 79.167969 50.578125 C 78.03125 50.578125 77.109375 49.65625 77.109375 48.523438 C 77.109375 47.390625 78.03125 46.46875 79.167969 46.46875 Z M 79.167969 52.253906 C 81.226562 52.253906 82.902344 50.582031 82.902344 48.523438 C 82.902344 46.464844 81.226562 44.792969 79.167969 44.792969 C 77.109375 44.792969 75.433594 46.464844 75.433594 48.523438 C 75.433594 50.582031 77.109375 52.253906 79.167969 52.253906 " fill-opacity="1" fill-rule="nonzero" />
  <path fill="#020202" d="M 84.964844 72.65625 C 84.964844 74.550781 83.421875 76.089844 81.523438 76.089844 L 79.285156 76.089844 L 79.285156 67.347656 L 81.523438 67.347656 C 83.421875 67.347656 84.964844 68.886719 84.964844 70.78125 Z M 81.523438 65.671875 L 78.445312 65.671875 C 77.984375 65.671875 77.609375 66.046875 77.609375 66.507812 L 77.609375 76.929688 C 77.609375 77.390625 77.984375 77.765625 78.445312 77.765625 L 81.523438 77.765625 C 84.34375 77.765625 86.640625 75.472656 86.640625 72.65625 L 86.640625 70.78125 C 86.640625 67.964844 84.34375 65.671875 81.523438 65.671875 " fill-opacity="1" fill-rule="nonzero" />
  <path fill="#020202" d="M 70.058594 73.203125 L 71.53125 69.027344 L 73.003906 73.203125 Z M 72.324219 66.230469 C 72.203125 65.894531 71.886719 65.671875 71.53125 65.671875 C 71.175781 65.671875 70.859375 65.894531 70.742188 66.230469 L 67.0625 76.648438 C 66.910156 77.085938 67.140625 77.566406 67.574219 77.71875 C 68.011719 77.871094 68.492188 77.644531 68.644531 77.207031 L 69.46875 74.875 L 73.597656 74.875 L 74.417969 77.207031 C 74.539062 77.550781 74.863281 77.765625 75.210938 77.765625 C 75.300781 77.765625 75.394531 77.75 75.488281 77.71875 C 75.925781 77.566406 76.152344 77.085938 76 76.648438 L 72.324219 66.230469 " fill-opacity="1" fill-rule="nonzero" />
  <path fill="#020202" d="M 95.671875 66.386719 C 95.613281 65.996094 95.289062 65.699219 94.898438 65.675781 C 94.519531 65.644531 94.144531 65.898438 94.035156 66.277344 L 92.714844 70.867188 L 91.394531 66.277344 C 91.289062 65.898438 90.925781 65.644531 90.535156 65.675781 C 90.140625 65.699219 89.820312 65.996094 89.761719 66.386719 L 88.210938 76.804688 C 88.140625 77.261719 88.457031 77.6875 88.917969 77.757812 C 89.375 77.828125 89.800781 77.507812 89.867188 77.050781 L 90.851562 70.449219 L 91.910156 74.132812 C 92.011719 74.492188 92.34375 74.738281 92.714844 74.738281 C 93.089844 74.738281 93.417969 74.492188 93.523438 74.132812 L 94.582031 70.449219 L 95.566406 77.050781 C 95.625 77.46875 95.984375 77.765625 96.394531 77.765625 C 96.433594 77.765625 96.476562 77.761719 96.515625 77.757812 C 96.976562 77.6875 97.292969 77.261719 97.222656 76.804688 L 95.671875 66.386719 " fill-opacity="1" fill-rule="nonzero" />
  <path fill="#020202" d="M 99.730469 65.671875 C 99.269531 65.671875 98.894531 66.046875 98.894531 66.507812 L 98.894531 76.929688 C 98.894531 77.390625 99.269531 77.765625 99.730469 77.765625 C 100.195312 77.765625 100.570312 77.390625 100.570312 76.929688 L 100.570312 66.507812 C 100.570312 66.046875 100.195312 65.671875 99.730469 65.671875 " fill-opacity="1" fill-rule="nonzero" />
  <path fill="#020202" d="M 103.019531 65.710938 C 102.671875 65.824219 102.433594 66.144531 102.433594 66.507812 L 102.433594 76.929688 C 102.433594 77.390625 102.808594 77.765625 103.273438 77.765625 C 103.734375 77.765625 104.109375 77.390625 104.109375 76.929688 L 104.109375 69.148438 L 109.941406 77.410156 C 110.101562 77.636719 110.359375 77.765625 110.628906 77.765625 C 110.710938 77.765625 110.796875 77.753906 110.882812 77.726562 C 111.230469 77.617188 111.464844 77.292969 111.464844 76.929688 L 111.464844 66.507812 C 111.464844 66.046875 111.089844 65.671875 110.628906 65.671875 C 110.164062 65.671875 109.789062 66.046875 109.789062 66.507812 L 109.789062 74.289062 L 103.957031 66.027344 C 103.746094 65.730469 103.371094 65.601562 103.019531 65.710938 " fill-opacity="1" fill-rule="nonzero" />
  <g clip-path="url(#51d10e6c79)">
    <path fill="#020202" d="M 113.796875 80.320312 L 64.6875 80.320312 L 64.6875 63.121094 L 113.796875 63.121094 Z M 83.074219 56.332031 C 83.074219 54.703125 84.402344 53.375 86.035156 53.375 L 92.449219 53.375 C 94.078125 53.375 95.40625 54.703125 95.40625 56.332031 L 95.40625 61.445312 L 94.132812 61.445312 L 94.132812 57.296875 C 94.132812 56.832031 93.757812 56.457031 93.296875 56.457031 C 92.832031 56.457031 92.457031 56.832031 92.457031 57.296875 L 92.457031 61.445312 L 86.023438 61.445312 L 86.023438 57.296875 C 86.023438 56.832031 85.648438 56.457031 85.1875 56.457031 C 84.722656 56.457031 84.347656 56.832031 84.347656 57.296875 L 84.347656 61.445312 L 83.074219 61.445312 Z M 114.636719 61.445312 L 106.472656 61.445312 L 106.472656 56.914062 C 106.472656 54.566406 104.558594 52.65625 102.210938 52.65625 L 97.957031 52.65625 C 97.496094 52.65625 97.117188 53.03125 97.117188 53.492188 C 97.117188 53.957031 97.496094 54.328125 97.957031 54.328125 L 102.210938 54.328125 C 103.636719 54.328125 104.796875 55.488281 104.796875 56.914062 L 104.796875 61.445312 L 103.8125 61.445312 L 103.8125 57.78125 C 103.8125 57.320312 103.4375 56.945312 102.972656 56.945312 C 102.511719 56.945312 102.136719 57.320312 102.136719 57.78125 L 102.136719 61.445312 L 97.082031 61.445312 L 97.082031 56.332031 C 97.082031 53.777344 95.003906 51.703125 92.449219 51.703125 L 86.035156 51.703125 C 83.476562 51.703125 81.398438 53.777344 81.398438 56.332031 L 81.398438 61.445312 L 76.347656 61.445312 L 76.347656 57.78125 C 76.347656 57.320312 75.972656 56.945312 75.507812 56.945312 C 75.046875 56.945312 74.667969 57.320312 74.667969 57.78125 L 74.667969 61.445312 L 73.6875 61.445312 L 73.6875 56.914062 C 73.6875 55.488281 74.847656 54.328125 76.273438 54.328125 L 80.523438 54.328125 C 80.988281 54.328125 81.363281 53.957031 81.363281 53.492188 C 81.363281 53.03125 80.988281 52.65625 80.523438 52.65625 L 76.273438 52.65625 C 73.921875 52.65625 72.007812 54.566406 72.007812 56.914062 L 72.007812 61.445312 L 63.847656 61.445312 C 63.382812 61.445312 63.007812 61.820312 63.007812 62.28125 L 63.007812 81.15625 C 63.007812 81.617188 63.382812 81.992188 63.847656 81.992188 L 114.636719 81.992188 C 115.097656 81.992188 115.472656 81.617188 115.472656 81.15625 L 115.472656 62.28125 C 115.472656 61.820312 115.097656 61.445312 114.636719 61.445312 " fill-opacity="1" fill-rule="nonzero" />
  </g>
</svg>